<?xml version="1.0" encoding="UTF-8" standalone="no"?>
<!DOCTYPE svg PUBLIC "-//W3C//DTD SVG 1.1//EN"
 "http://www.w3.org/Graphics/SVG/1.1/DTD/svg11.dtd">
<!-- Generated by graphviz version 2.40.1 (20161225.0304)
 -->
<!-- Title: dependencies Pages: 1 -->
<svg width="508pt" height="284pt"
 viewBox="0.00 0.00 508.00 284.00" xmlns="http://www.w3.org/2000/svg" xmlns:xlink="http://www.w3.org/1999/xlink">
<g id="graph0" class="graph" transform="scale(1 1) rotate(0) translate(4 280)">
<title>dependencies</title>
<polygon fill="#ffffff" stroke="transparent" points="-4,4 -4,-280 504,-280 504,4 -4,4"/>
<text text-anchor="start" x="229.0091" y="-42.4" font-family="sans-serif" font-weight="bold" font-size="14.00" fill="#000000">Legend</text>
<polygon fill="#ffffb3" stroke="transparent" points="16,-10 16,-30 36,-30 36,-10 16,-10"/>
<text text-anchor="start" x="39.629" y="-15.4" font-family="sans-serif" font-size="14.00" fill="#000000"> &#160;Declarations</text>
<polygon fill="#8dd3c7" stroke="transparent" points="129,-10 129,-30 149,-30 149,-10 129,-10"/>
<text text-anchor="start" x="152.7251" y="-15.4" font-family="sans-serif" font-size="14.00" fill="#000000"> &#160;Module</text>
<polygon fill="#80b1d3" stroke="transparent" points="215,-10 215,-30 235,-30 235,-10 215,-10"/>
<text text-anchor="start" x="238.7812" y="-15.4" font-family="sans-serif" font-size="14.00" fill="#000000"> &#160;Bootstrap</text>
<polygon fill="#fdb462" stroke="transparent" points="312,-10 312,-30 332,-30 332,-10 312,-10"/>
<text text-anchor="start" x="335.6732" y="-15.4" font-family="sans-serif" font-size="14.00" fill="#000000"> &#160;Providers</text>
<polygon fill="#fb8072" stroke="transparent" points="408,-10 408,-30 428,-30 428,-10 408,-10"/>
<text text-anchor="start" x="431.7258" y="-15.4" font-family="sans-serif" font-size="14.00" fill="#000000"> &#160;Exports</text>
<g id="clust1" class="cluster">
<title>cluster_AppModule</title>
<polygon fill="none" stroke="#000000" stroke-dasharray="1,5" points="8,-70 8,-268 492,-268 492,-70 8,-70"/>
</g>
<g id="clust2" class="cluster">
<title>cluster_AppModule_declarations</title>
<polygon fill="none" stroke="#000000" points="16,-78 16,-130 484,-130 484,-78 16,-78"/>
</g>
<g id="clust8" class="cluster">
<title>cluster_AppModule_bootstrap</title>
<polygon fill="none" stroke="#000000" points="209,-208 209,-260 333,-260 333,-208 209,-208"/>
</g>
<!-- AppComponent -->
<g id="node1" class="node">
<title>AppComponent</title>
<polygon fill="#ffffb3" stroke="#000000" points="475.9399,-122 370.0601,-122 370.0601,-86 475.9399,-86 475.9399,-122"/>
<text text-anchor="middle" x="423" y="-99.8" font-family="Times,serif" font-size="14.00" fill="#000000">AppComponent</text>
</g>
<!-- AppModule -->
<g id="node4" class="node">
<title>AppModule</title>
<polygon fill="#8dd3c7" stroke="#000000" points="312.6571,-187 309.6571,-191 288.6571,-191 285.6571,-187 229.3429,-187 229.3429,-151 312.6571,-151 312.6571,-187"/>
<text text-anchor="middle" x="271" y="-164.8" font-family="Times,serif" font-size="14.00" fill="#000000">AppModule</text>
</g>
<!-- AppComponent&#45;&gt;AppModule -->
<g id="edge1" class="edge">
<title>AppComponent&#45;&gt;AppModule</title>
<path fill="none" stroke="#000000" d="M423,-122.1061C423,-141.3391 423,-169 423,-169 423,-169 322.937,-169 322.937,-169"/>
<polygon fill="#000000" stroke="#000000" points="322.9371,-165.5001 312.937,-169 322.937,-172.5001 322.9371,-165.5001"/>
</g>
<!-- ControlsMenuComponent -->
<g id="node2" class="node">
<title>ControlsMenuComponent</title>
<polygon fill="#ffffb3" stroke="#000000" points="352.2147,-122 189.7853,-122 189.7853,-86 352.2147,-86 352.2147,-122"/>
<text text-anchor="middle" x="271" y="-99.8" font-family="Times,serif" font-size="14.00" fill="#000000">ControlsMenuComponent</text>
</g>
<!-- ControlsMenuComponent&#45;&gt;AppModule -->
<g id="edge2" class="edge">
<title>ControlsMenuComponent&#45;&gt;AppModule</title>
<path fill="none" stroke="#000000" d="M271,-122.1061C271,-122.1061 271,-140.991 271,-140.991"/>
<polygon fill="#000000" stroke="#000000" points="267.5001,-140.9909 271,-150.991 274.5001,-140.991 267.5001,-140.9909"/>
</g>
<!-- ThreeSceneComponent -->
<g id="node3" class="node">
<title>ThreeSceneComponent</title>
<polygon fill="#ffffb3" stroke="#000000" points="171.9017,-122 24.0983,-122 24.0983,-86 171.9017,-86 171.9017,-122"/>
<text text-anchor="middle" x="98" y="-99.8" font-family="Times,serif" font-size="14.00" fill="#000000">ThreeSceneComponent</text>
</g>
<!-- ThreeSceneComponent&#45;&gt;AppModule -->
<g id="edge3" class="edge">
<title>ThreeSceneComponent&#45;&gt;AppModule</title>
<path fill="none" stroke="#000000" d="M98,-122.1061C98,-141.3391 98,-169 98,-169 98,-169 219.1215,-169 219.1215,-169"/>
<polygon fill="#000000" stroke="#000000" points="219.1216,-172.5001 229.1215,-169 219.1215,-165.5001 219.1216,-172.5001"/>
</g>
<!-- AppComponent  -->
<g id="node5" class="node">
<title>AppComponent </title>
<polygon fill="#80b1d3" stroke="#000000" points="325.439,-252 216.561,-252 216.561,-216 325.439,-216 325.439,-252"/>
<text text-anchor="middle" x="271" y="-229.8" font-family="Times,serif" font-size="14.00" fill="#000000">AppComponent </text>
</g>
<!-- AppModule&#45;&gt;AppComponent  -->
<g id="edge4" class="edge">
<title>AppModule&#45;&gt;AppComponent </title>
<path fill="none" stroke="#000000" stroke-dasharray="1,5" d="M271,-187.1061C271,-187.1061 271,-205.991 271,-205.991"/>
<polygon fill="#000000" stroke="#000000" points="267.5001,-205.9909 271,-215.991 274.5001,-205.991 267.5001,-205.9909"/>
</g>
</g>
</svg>
