<?xml version="1.0" encoding="UTF-8" standalone="no"?>
<!DOCTYPE svg PUBLIC "-//W3C//DTD SVG 1.1//EN"
 "http://www.w3.org/Graphics/SVG/1.1/DTD/svg11.dtd">
<!-- Generated by graphviz version 2.40.1 (20161225.0304)
 -->
<!-- Title: dependencies Pages: 1 -->
<svg width="504pt" height="284pt"
 viewBox="0.00 0.00 504.00 284.00" xmlns="http://www.w3.org/2000/svg" xmlns:xlink="http://www.w3.org/1999/xlink">
<g id="graph0" class="graph" transform="scale(1 1) rotate(0) translate(4 280)">
<title>dependencies</title>
<polygon fill="#ffffff" stroke="transparent" points="-4,4 -4,-280 500,-280 500,4 -4,4"/>
<text text-anchor="start" x="227.0091" y="-42.4" font-family="sans-serif" font-weight="bold" font-size="14.00" fill="#000000">Legend</text>
<polygon fill="#ffffb3" stroke="transparent" points="14,-10 14,-30 34,-30 34,-10 14,-10"/>
<text text-anchor="start" x="37.629" y="-15.4" font-family="sans-serif" font-size="14.00" fill="#000000"> &#160;Declarations</text>
<polygon fill="#8dd3c7" stroke="transparent" points="127,-10 127,-30 147,-30 147,-10 127,-10"/>
<text text-anchor="start" x="150.7251" y="-15.4" font-family="sans-serif" font-size="14.00" fill="#000000"> &#160;Module</text>
<polygon fill="#80b1d3" stroke="transparent" points="213,-10 213,-30 233,-30 233,-10 213,-10"/>
<text text-anchor="start" x="236.7812" y="-15.4" font-family="sans-serif" font-size="14.00" fill="#000000"> &#160;Bootstrap</text>
<polygon fill="#fdb462" stroke="transparent" points="310,-10 310,-30 330,-30 330,-10 310,-10"/>
<text text-anchor="start" x="333.6732" y="-15.4" font-family="sans-serif" font-size="14.00" fill="#000000"> &#160;Providers</text>
<polygon fill="#fb8072" stroke="transparent" points="406,-10 406,-30 426,-30 426,-10 406,-10"/>
<text text-anchor="start" x="429.7258" y="-15.4" font-family="sans-serif" font-size="14.00" fill="#000000"> &#160;Exports</text>
<g id="clust1" class="cluster">
<title>cluster_AppModule</title>
<polygon fill="none" stroke="#000000" stroke-dasharray="1,5" points="96.5,-70 96.5,-268 399.5,-268 399.5,-70 96.5,-70"/>
</g>
<g id="clust2" class="cluster">
<title>cluster_AppModule_declarations</title>
<polygon fill="none" stroke="#000000" points="104.5,-78 104.5,-130 391.5,-130 391.5,-78 104.5,-78"/>
</g>
<g id="clust7" class="cluster">
<title>cluster_AppModule_bootstrap</title>
<polygon fill="none" stroke="#000000" points="195.5,-208 195.5,-260 319.5,-260 319.5,-208 195.5,-208"/>
</g>
<!-- AppComponent -->
<g id="node1" class="node">
<title>AppComponent</title>
<polygon fill="#ffffb3" stroke="#000000" points="383.4399,-122 277.5601,-122 277.5601,-86 383.4399,-86 383.4399,-122"/>
<text text-anchor="middle" x="330.5" y="-99.8" font-family="Times,serif" font-size="14.00" fill="#000000">AppComponent</text>
</g>
<!-- AppModule -->
<g id="node3" class="node">
<title>AppModule</title>
<polygon fill="#8dd3c7" stroke="#000000" points="299.1571,-187 296.1571,-191 275.1571,-191 272.1571,-187 215.8429,-187 215.8429,-151 299.1571,-151 299.1571,-187"/>
<text text-anchor="middle" x="257.5" y="-164.8" font-family="Times,serif" font-size="14.00" fill="#000000">AppModule</text>
</g>
<!-- AppComponent&#45;&gt;AppModule -->
<g id="edge1" class="edge">
<title>AppComponent&#45;&gt;AppModule</title>
<path fill="none" stroke="#000000" d="M288.5544,-122.1061C288.5544,-122.1061 288.5544,-140.991 288.5544,-140.991"/>
<polygon fill="#000000" stroke="#000000" points="285.0544,-140.9909 288.5544,-150.991 292.0544,-140.991 285.0544,-140.9909"/>
</g>
<!-- ThreeSceneComponent -->
<g id="node2" class="node">
<title>ThreeSceneComponent</title>
<polygon fill="#ffffb3" stroke="#000000" points="260.4017,-122 112.5983,-122 112.5983,-86 260.4017,-86 260.4017,-122"/>
<text text-anchor="middle" x="186.5" y="-99.8" font-family="Times,serif" font-size="14.00" fill="#000000">ThreeSceneComponent</text>
</g>
<!-- ThreeSceneComponent&#45;&gt;AppModule -->
<g id="edge2" class="edge">
<title>ThreeSceneComponent&#45;&gt;AppModule</title>
<path fill="none" stroke="#000000" d="M237.9362,-122.1061C237.9362,-122.1061 237.9362,-140.991 237.9362,-140.991"/>
<polygon fill="#000000" stroke="#000000" points="234.4363,-140.9909 237.9362,-150.991 241.4363,-140.991 234.4363,-140.9909"/>
</g>
<!-- AppComponent  -->
<g id="node4" class="node">
<title>AppComponent </title>
<polygon fill="#80b1d3" stroke="#000000" points="311.939,-252 203.061,-252 203.061,-216 311.939,-216 311.939,-252"/>
<text text-anchor="middle" x="257.5" y="-229.8" font-family="Times,serif" font-size="14.00" fill="#000000">AppComponent </text>
</g>
<!-- AppModule&#45;&gt;AppComponent  -->
<g id="edge3" class="edge">
<title>AppModule&#45;&gt;AppComponent </title>
<path fill="none" stroke="#000000" stroke-dasharray="1,5" d="M257.5,-187.1061C257.5,-187.1061 257.5,-205.991 257.5,-205.991"/>
<polygon fill="#000000" stroke="#000000" points="254.0001,-205.9909 257.5,-215.991 261.0001,-205.991 254.0001,-205.9909"/>
</g>
</g>
</svg>
